<svg width="24" height="25" viewBox="0 0 24 25" fill="none" xmlns="http://www.w3.org/2000/svg">
<path d="M3.05371 6.63086V19.835H20.9463V7.02734L20.1709 7.53711L12.2148 12.7754C12.1545 12.807 12.1021 12.8327 12.0566 12.8506C12.0535 12.8516 12.0367 12.8564 12 12.8564C11.9627 12.8564 11.9461 12.8515 11.9434 12.8506C11.8977 12.8326 11.8449 12.8073 11.7842 12.7754L4.05371 7.68457V7.28516L11.7266 12.3105L12 12.4902L12.2734 12.3115L20.6201 6.86133L21.6309 6.2002C21.6465 6.278 21.6553 6.3584 21.6553 6.44238V19.335C21.6553 19.6562 21.543 19.9297 21.2939 20.1777C21.0451 20.4258 20.7703 20.5381 20.4463 20.5381H3.55371C3.23199 20.5381 2.95881 20.4257 2.71094 20.1777L2.62402 20.084C2.43636 19.8612 2.35059 19.6165 2.35059 19.335V6.44238C2.3506 6.35386 2.35965 6.26915 2.37695 6.1875L3.05371 6.63086ZM3.55371 5.2334H20.4463C20.7697 5.2334 21.0439 5.34657 21.293 5.5957H21.2939C21.4036 5.70536 21.4851 5.82083 21.5439 5.94238H2.46094C2.51962 5.82039 2.60139 5.70462 2.71094 5.59473H2.71191C2.95988 5.34585 3.23264 5.23343 3.55371 5.2334Z" fill="black" stroke="black"/>
</svg>
