<svg width="24" height="25" viewBox="0 0 24 25" fill="none" xmlns="http://www.w3.org/2000/svg">
<path d="M4.11914 4.2334H7.61914C7.80287 4.23341 7.9305 4.28812 8.03516 4.38672C8.12866 4.47481 8.20717 4.58926 8.26562 4.74023L8.31738 4.90332L8.98242 7.91699C9.01509 8.14878 9.00757 8.33378 8.97266 8.48047C8.94151 8.61144 8.87973 8.71971 8.78027 8.81445L8.77344 8.82031L6.25586 11.3037L5.97656 11.5791L6.17676 11.915C6.60349 12.6322 7.05697 13.3047 7.53711 13.9307C8.01993 14.5602 8.55611 15.1582 9.14453 15.7256C9.75791 16.3588 10.3991 16.934 11.0684 17.4492C11.7435 17.969 12.449 18.424 13.1846 18.8135L13.5156 18.9883L13.7764 18.7207L16.1816 16.2529L16.1914 16.2422C16.331 16.0908 16.4776 15.9997 16.6338 15.9531C16.7648 15.9143 16.8946 15.9007 17.0254 15.9102L17.1572 15.9277L19.9775 16.5518C20.1433 16.5979 20.2751 16.6693 20.3818 16.7637L20.4814 16.8662C20.5982 17.0072 20.6553 17.1651 20.6553 17.3594V20.7695C20.6553 21.0065 20.5811 21.1781 20.4375 21.3203C20.2911 21.4653 20.1182 21.5381 19.8867 21.5381C18.0116 21.538 16.0913 21.0878 14.1221 20.1729C12.1539 19.2584 10.323 17.9578 8.62988 16.2646C7.04282 14.6776 5.79979 12.9685 4.89551 11.1377L4.71875 10.7695C3.80172 8.79805 3.35059 6.87875 3.35059 5.00781C3.3506 4.82996 3.39186 4.68748 3.47363 4.56641L3.56934 4.45215C3.71339 4.3073 3.88514 4.2334 4.11914 4.2334ZM4.06641 5.46387C4.09734 6.17685 4.20935 6.92517 4.39941 7.70703C4.59098 8.49506 4.8907 9.36485 5.29492 10.3135L5.58398 10.9922L6.10742 10.4717L8.12695 8.46387L8.32031 8.27148L8.2627 8.00488L7.69434 5.33789L7.60938 4.94238H4.04395L4.06641 5.46387ZM19.9463 17.2656L19.5479 17.1836L17.0625 16.6689L16.791 16.6133L16.5986 16.8135L14.6357 18.8711L14.1543 19.375L14.7871 19.6699C15.482 19.9931 16.2354 20.2551 17.0449 20.458C17.8556 20.6611 18.6478 20.7831 19.4209 20.8223L19.9463 20.8486V17.2656Z" fill="black" stroke="black"/>
</svg>
