<svg id="Layer_2" xmlns="http://www.w3.org/2000/svg" viewBox="0 0 1000 100"><defs><style>.cls-1{fill:#005aff;}</style></defs><g id="Layer_1-2"><g><rect class="cls-1" x="180" y="80" width="20" height="20"/><rect class="cls-1" x="200" y="60" width="20" height="20"/><rect class="cls-1" x="220" y="40" width="20" height="20"/><rect class="cls-1" x="240" y="20" width="20" height="20"/><rect class="cls-1" x="260" y="80" width="20" height="20"/><rect class="cls-1" x="240" y="60" width="20" height="20"/><rect class="cls-1" x="200" y="20" width="20" height="20"/><rect class="cls-1" x="260" width="20" height="20"/><rect class="cls-1" x="180" width="20" height="20"/><polygon class="cls-1" points="120 20 120 40 120 60 120 80 120 100 140 100 140 80 140 60 140 40 140 20 140 0 120 0 120 20"/><polygon class="cls-1" points="640 20 640 40 640 60 640 80 640 100 660 100 660 80 660 60 660 40 660 20 660 0 640 0 640 20"/><rect class="cls-1" x="560" y="20" width="20" height="20"/><rect class="cls-1" x="560" y="60" width="20" height="20"/><rect class="cls-1" x="580" y="80" width="20" height="20"/><rect class="cls-1" x="580" width="20" height="20"/><polygon class="cls-1" points="540 20 540 0 520 0 520 20 520 40 520 60 520 80 520 100 540 100 540 80 540 60 560 60 560 40 540 40 540 20"/><rect class="cls-1" x="860" y="60" width="20" height="20"/><rect class="cls-1" x="860" y="20" width="20" height="20"/><rect class="cls-1" x="880" y="80" width="20" height="20"/><rect class="cls-1" x="880" width="20" height="20"/><polygon class="cls-1" points="840 20 840 0 820 0 820 20 820 40 820 60 820 80 820 100 840 100 840 80 840 60 860 60 860 40 840 40 840 20"/><polygon class="cls-1" points="440 80 440 60 440 40 440 20 440 0 420 0 420 20 420 40 420 60 420 80 420 100 440 100 460 100 480 100 480 80 460 80 440 80"/><polygon class="cls-1" points="340 0 320 0 320 20 320 40 320 60 320 80 320 100 340 100 360 100 380 100 380 80 360 80 340 80 340 60 360 60 360 40 340 40 340 20 360 20 380 20 380 0 360 0 340 0"/><path class="cls-1" d="M50,0H0V100H20V60h30c16.54,0,30-13.46,30-30S66.54,0,50,0Zm0,40H20V20h30c5.51,0,10,4.49,10,10s-4.49,10-10,10Z"/><path class="cls-1" d="M749.99,19.97c5.61,0,10.96,1.56,15.63,4.41l14.38-14.38c-8.61-6.49-19.04-10-30.01-10-13.36,0-25.91,5.2-35.36,14.64-9.44,9.44-14.64,22-14.64,35.36s5.2,25.91,14.64,35.36c9.44,9.44,22,14.64,35.36,14.64,10.97,0,21.4-3.52,30.01-10l-14.38-14.38c-4.66,2.86-10.02,4.41-15.63,4.41-8.02,0-15.56-3.12-21.23-8.79-5.67-5.67-8.79-13.21-8.79-21.23s3.12-15.56,8.79-21.23c5.67-5.67,13.21-8.79,21.23-8.79Z"/><path class="cls-1" d="M980,41.75c-3.13-1.11-6.49-1.75-10-1.75-5.51,0-10-4.49-10-10s4.49-10,10-10h.79c5.32,.14,10.39,1.67,14.83,4.38l14.38-14.38c-5.94-4.47-12.75-7.49-20-8.96-3.26-.66-6.6-1.04-10-1.04-3.51,0-6.86,.64-10,1.75-11.63,4.13-20,15.22-20,28.25s8.37,24.12,20,28.25c3.13,1.11,6.49,1.75,10,1.75,5.51,0,10,4.49,10,10s-4.49,10-10,10h-.79c-5.32-.14-10.39-1.67-14.83-4.38l-14.38,14.38c5.94,4.47,12.75,7.49,20,8.96,3.26,.66,6.6,1.04,10,1.04,3.51,0,6.86-.64,10-1.75,11.63-4.13,20-15.22,20-28.25s-8.37-24.12-20-28.25Z"/></g></g></svg>