<svg width="21" height="19" viewBox="0 0 21 19" fill="none" xmlns="http://www.w3.org/2000/svg">
<path d="M9.40413 0.612343C9.74787 -0.204115 10.9186 -0.204114 11.2624 0.612346L13.2911 5.43123C13.4361 5.77543 13.7638 6.01061 14.1399 6.0404L19.4059 6.45748C20.2981 6.52814 20.6599 7.62813 19.9801 8.2034L15.968 11.5987C15.6815 11.8412 15.5563 12.2218 15.6438 12.5843L16.8696 17.661C17.0773 18.5211 16.1301 19.201 15.3663 18.7401L10.8578 16.0196C10.5358 15.8252 10.1308 15.8252 9.80873 16.0196L5.30024 18.7401C4.53636 19.201 3.58921 18.5211 3.79689 17.661L5.02267 12.5843C5.11023 12.2218 4.98507 11.8412 4.69851 11.5987L0.686314 8.2034C0.00653419 7.62813 0.36832 6.52814 1.26054 6.45748L6.52661 6.0404C6.90275 6.01061 7.23041 5.77543 7.37532 5.43123L9.40413 0.612343Z" fill="black"/>
</svg>
